<svg xmlns="http://www.w3.org/2000/svg" xmlns:xlink="http://www.w3.org/1999/xlink" width="1931" height="1560" viewBox="0 0 1931 1560"><defs><style>.cls-1{fill:none;}.cls-2{fill:#f58fa5;}.cls-3{fill:url(#New_Pattern);}.cls-4{fill:#00e3dc;}.cls-5{fill:#fcc500;}.cls-6{fill:#efc819;}.cls-7{fill:url(#New_Pattern_4);}.cls-8{fill:#333;}</style><pattern id="New_Pattern" data-name="New Pattern" width="10" height="10" patternTransform="matrix(0.33, -0.35, 0.34, 0.36, -2.04, 10.12)" patternUnits="userSpaceOnUse" viewBox="0 0 10 10"><rect class="cls-1" width="10" height="10"/><circle class="cls-2" cx="5" cy="5" r="2.5"/></pattern><pattern id="New_Pattern_4" data-name="New Pattern 4" width="21" height="26" patternTransform="translate(8.6 14.74) scale(0.82 0.66)" patternUnits="userSpaceOnUse" viewBox="0 0 21 26"><rect class="cls-1" width="21" height="26"/><circle cx="10.5" cy="13" r="3"/></pattern></defs><g id="Layer_1" data-name="Layer 1"><path class="cls-3" d="M1707.23,1388.44c-5.85-15.24-12.12-30.87-20.49-45-8.54-14.44-19.34-27.74-29.81-40.73-12.12-15.06-26.21-28.47-41.12-40.73-19.78-16.27-40.32-32-62.24-45.27-37.81-23-79.73-40.57-122-53.41-43.27-13.13-88.38-20-133.32-24.29a684.33,684.33,0,0,0-117.87-.51c-97.18,7.63-192.12,29.26-286.07,54.32-94.43,25.19-188.57,52.57-285.41,66.86-55.72,6.69-112,8.48-167.81,2.34a594.71,594.71,0,0,1-126.39-34.57,593.37,593.37,0,0,1-109.94-64.1c-20-16.27-38.86-34-55.46-53.76a262.46,262.46,0,0,1-21.65-36.41,260.32,260.32,0,0,1-11.07-41.31,348,348,0,0,1,.7-66c6.32-38.25,17.38-75.65,31.69-111.67a453.47,453.47,0,0,1,45.2-79.32,340.44,340.44,0,0,1,43.38-43.61,398.81,398.81,0,0,1,66.47-38c45.15-17.66,92.57-28.76,140.49-35.93,85.7-10.18,172.37-8,258.11.87,44.78,4.63,89.26,11.71,134,16.38,22.34,2.33,44.78,4,67.25,4.35,29.74.44,58.73-2.58,88.18-6.65,86-11.86,164.2-53.92,230-109.26,32.48-27.31,59.58-59.66,84.46-93.93,26.64-36.69,45.75-77.25,62.5-119.24,19.67-49.26,29.5-100.48,36-152.93a616.69,616.69,0,0,0,1.65-136,69,69,0,0,0-7.88-35.25A68.65,68.65,0,0,0,1380-3.82c-15.87-15.87-41.91-27.82-64.7-26.8-23.67,1.06-48.21,8.84-64.7,26.8-15.51,16.89-29.11,40.91-26.8,64.7a619.49,619.49,0,0,1-.67,127.57,531.13,531.13,0,0,1-29.61,110.4,452.55,452.55,0,0,1-45.66,78.77A431.11,431.11,0,0,1,1088.56,437a395.16,395.16,0,0,1-65.64,38.61,358,358,0,0,1-66.33,18.18c-85,8.35-169.72-9.87-254-18.59-87.58-9.07-176.3-11.29-263.8-.2-93,11.79-185.21,32.48-266.88,80.8C94.59,601.53,33.63,671.12-4.64,752.17c-19.39,41.06-36.09,84-47,128.12-11.12,45.05-18.09,92.84-15.74,139.33,2.73,53.95,15.26,104.91,40.4,152.84,12.08,23,28.16,43.77,44.55,63.82a366.66,366.66,0,0,0,38.94,40.47c68.38,61.48,148.65,106.89,235.44,136.81,84.69,29.19,176.74,39.39,265.95,33.85,95-5.9,188.55-26,280.41-50,84.31-22.11,168-47,253.71-63.46q25.44-4.89,51.07-8.66c55.35-6.61,111.08-8.19,166.52-2a521,521,0,0,1,108.3,28.72,409,409,0,0,1,69.07,40,298.37,298.37,0,0,1,35.49,34.25,180.36,180.36,0,0,1,10.54,17.55,163,163,0,0,1,4.44,16.56,229.32,229.32,0,0,1-.61,34.17c-4.6,26.17-11.92,51.76-19.56,77.2-6.74,22.42-2.5,50.47,9.22,70.51,11.11,19,32.87,37.08,54.68,42,23.43,5.33,49.72,4.18,70.51-9.23,20.32-13.1,35-31.2,42-54.68,14.31-47.67,27.2-97.28,27.18-147.4C1720.93,1444.76,1717.37,1414.83,1707.23,1388.44Z"/></g><g id="Layer_2" data-name="Layer 2"><ellipse class="cls-4" cx="830" cy="282.5" rx="158" ry="151.5"/><circle class="cls-5" cx="962" cy="343" r="58"/><path class="cls-5" d="M965.62,674.86l52.16-34.39,61.89-4.82L1030,671.88Z"/><path class="cls-2" d="M965.65,674.75l23.77,72.58,65.2-2.06L1030,671.88Z"/><path class="cls-4" d="M1079.87,635.65,1030,671.88l24.63,73.39,50.81-39.22Z"/><rect class="cls-6" x="1375.33" y="198.02" width="10.75" height="736" transform="translate(-111.52 567.22) rotate(-22.34)"/><rect class="cls-5" x="1396.08" y="189.84" width="10.75" height="736" transform="translate(-106.85 574.49) rotate(-22.34)"/><rect class="cls-5" x="1416.83" y="181.5" width="10.75" height="736" transform="translate(-102.12 581.75) rotate(-22.34)"/><rect class="cls-5" x="1437.74" y="172.36" width="10.75" height="736" transform="translate(-97.08 589.01) rotate(-22.34)"/><rect class="cls-2" x="216" y="288" width="449" height="457"/><path class="cls-4" d="M1330.78,834.84,1262.61,746l-100.92-40.7,63,90.91Z"/><path class="cls-2" d="M1330.79,834.61l-80.16,118.3-108-37.46,82-119.29Z"/><path class="cls-6" d="M1161.35,705.15l63.34,91-82,119.29L1079.4,818.6Z"/><polygon class="cls-6" points="315.89 656.54 308.34 652.88 325.07 608.95 332.62 612.61 315.89 656.54"/><polygon class="cls-6" points="298.94 627.23 302.1 618.92 342.02 638.26 338.86 646.57 298.94 627.23"/><polygon class="cls-6" points="376.84 686.07 369.29 682.41 386.02 638.48 393.58 642.14 376.84 686.07"/><polygon class="cls-6" points="359.89 656.76 363.06 648.45 402.98 667.79 399.81 676.1 359.89 656.76"/><polygon class="cls-6" points="437.8 715.6 430.25 711.94 446.98 668.01 454.53 671.67 437.8 715.6"/><polygon class="cls-6" points="420.85 686.29 424.01 677.98 463.93 697.32 460.77 705.63 420.85 686.29"/><polygon class="cls-6" points="498.75 745.13 491.2 741.47 507.94 697.54 515.49 701.2 498.75 745.13"/><polygon class="cls-6" points="481.8 715.82 484.97 707.51 524.89 726.85 521.72 735.16 481.8 715.82"/><polygon class="cls-6" points="561.87 775.7 554.32 772.04 571.05 728.11 578.6 731.77 561.87 775.7"/><polygon class="cls-6" points="544.92 746.39 548.08 738.08 588 757.42 584.83 765.73 544.92 746.39"/><polygon class="cls-6" points="287.58 730.06 280.03 726.4 296.76 682.48 304.32 686.14 287.58 730.06"/><polygon class="cls-6" points="270.63 700.76 273.8 692.45 313.71 711.78 310.55 720.1 270.63 700.76"/><polygon class="cls-6" points="348.54 759.59 340.99 755.93 357.72 712.01 365.27 715.66 348.54 759.59"/><polygon class="cls-6" points="331.59 730.29 334.75 721.98 374.67 741.31 371.5 749.62 331.59 730.29"/><polygon class="cls-6" points="409.49 789.12 401.94 785.46 418.68 741.53 426.23 745.19 409.49 789.12"/><polygon class="cls-6" points="392.54 759.82 395.71 751.5 435.63 770.84 432.46 779.15 392.54 759.82"/><polygon class="cls-6" points="470.45 818.65 462.9 814.99 479.63 771.06 487.18 774.72 470.45 818.65"/><polygon class="cls-6" points="453.5 789.34 456.66 781.03 496.58 800.37 493.42 808.68 453.5 789.34"/><polygon class="cls-6" points="533.56 849.22 526.01 845.57 542.74 801.64 550.3 805.3 533.56 849.22"/><polygon class="cls-6" points="516.61 819.92 519.78 811.61 559.7 830.94 556.53 839.25 516.61 819.92"/><polygon class="cls-6" points="261.26 799.32 253.7 795.66 270.44 751.73 277.99 755.39 261.26 799.32"/><polygon class="cls-6" points="244.31 770.01 247.47 761.7 287.39 781.04 284.22 789.35 244.31 770.01"/><polygon class="cls-6" points="322.21 828.85 314.66 825.19 331.39 781.26 338.94 784.92 322.21 828.85"/><polygon class="cls-6" points="305.26 799.54 308.43 791.23 348.34 810.57 345.18 818.88 305.26 799.54"/><polygon class="cls-6" points="383.17 858.37 375.62 854.72 392.35 810.79 399.9 814.45 383.17 858.37"/><polygon class="cls-6" points="366.22 829.07 369.38 820.76 409.3 840.09 406.13 848.4 366.22 829.07"/><polygon class="cls-6" points="444.12 887.9 436.57 884.24 453.3 840.32 460.86 843.98 444.12 887.9"/><polygon class="cls-6" points="427.17 858.6 430.34 850.28 470.25 869.62 467.09 877.93 427.17 858.6"/><polygon class="cls-6" points="507.24 918.48 499.68 914.82 516.42 870.89 523.97 874.55 507.24 918.48"/><polygon class="cls-6" points="490.29 889.17 493.45 880.86 533.37 900.2 530.2 908.51 490.29 889.17"/><polygon class="cls-6" points="232.95 872.84 225.4 869.18 242.13 825.25 249.68 828.91 232.95 872.84"/><polygon class="cls-6" points="216 843.53 219.17 835.22 259.08 854.56 255.92 862.87 216 843.53"/><polygon class="cls-6" points="293.91 902.37 286.36 898.71 303.09 854.78 310.64 858.44 293.91 902.37"/><polygon class="cls-6" points="276.95 873.06 280.12 864.75 320.04 884.09 316.87 892.4 276.95 873.06"/><polygon class="cls-6" points="354.86 931.9 347.31 928.24 364.04 884.31 371.6 887.97 354.86 931.9"/><polygon class="cls-6" points="337.91 902.59 341.08 894.28 380.99 913.62 377.83 921.93 337.91 902.59"/><polygon class="cls-6" points="415.82 961.43 408.27 957.77 425 913.84 432.55 917.5 415.82 961.43"/><polygon class="cls-6" points="398.87 932.12 402.03 923.81 441.95 943.15 438.78 951.46 398.87 932.12"/><polygon class="cls-6" points="478.93 992 471.38 988.34 488.11 944.41 495.66 948.07 478.93 992"/><polygon class="cls-6" points="461.98 962.69 465.14 954.38 505.06 973.72 501.9 982.03 461.98 962.69"/><rect class="cls-7" x="1461" y="694" width="358" height="288"/><rect class="cls-8" x="141" width="16" height="1560"/></g></svg>