<svg xmlns="http://www.w3.org/2000/svg" xmlns:xlink="http://www.w3.org/1999/xlink" width="1931" height="1068" viewBox="0 0 1931 1068"><defs><style>.cls-1{fill:none;}.cls-2{fill:#f58fa5;}.cls-3{fill:url(#New_Pattern);}.cls-4{fill:#00e3dc;}.cls-5{fill:#fcc500;}.cls-6{fill:#efc819;}.cls-7{fill:url(#New_Pattern_4);}.cls-8{fill:#333;}</style><pattern id="New_Pattern" data-name="New Pattern" width="10" height="10" patternTransform="matrix(0.33, -0.35, 0.34, 0.36, -2.04, 10.12)" patternUnits="userSpaceOnUse" viewBox="0 0 10 10"><rect class="cls-1" width="10" height="10"/><circle class="cls-2" cx="5" cy="5" r="2.5"/></pattern><pattern id="New_Pattern_4" data-name="New Pattern 4" width="21" height="26" patternTransform="translate(8.6 14.74) scale(0.82 0.66)" patternUnits="userSpaceOnUse" viewBox="0 0 21 26"><rect class="cls-1" width="21" height="26"/><circle cx="10.5" cy="13" r="3"/></pattern></defs><g id="Layer_1" data-name="Layer 1"><path class="cls-3" d="M1453,233c-7.45-11.64-17.57-17.29-36-27.89a264,264,0,0,0-72-28c-32.29-7.27-58.34-7.11-63.65-6.81a270.6,270.6,0,0,0-123.09,38.06C1088.41,250,1041,318.93,999.11,387c-20.66,33.58-40.8,67.55-64.26,99.25-15.85,20-33.24,38.56-52.85,54.8A360.48,360.48,0,0,1,816.18,579c-46.91,18.93-96.69,30.73-146.63,38.09-55.48,6.78-110.79,6.5-166.55,2.79-29.39-2-58.79-4.13-88.26-4.06a505,505,0,0,0-97.55,9.89c-31.19,6.23-60.66,16.8-89.86,29.32a385.78,385.78,0,0,0-67,36.52c-47.2,32.5-89.12,74-116.89,124.74C8.64,879.9-3.63,953.16,11.16,1024.41c3,14.36,15.41,29,27.68,36.27,12.91,7.61,31.94,10.83,46.42,6.11s28.64-13.85,36-27.88c7.84-15,9.52-30.12,6.07-46.77-.52-2.49-1-5-1.43-7.48a229.31,229.31,0,0,1,.14-42.73,255.51,255.51,0,0,1,13-47.51,273,273,0,0,1,26.59-45.53,319.34,319.34,0,0,1,45.4-45.32,377.1,377.1,0,0,1,69.14-40.28,400.29,400.29,0,0,1,84.88-23.38c59.78-6.61,119.65,1.23,179.49,3.68,66.77,2.73,134-3.46,199.44-17,59.46-12.29,119.15-31.61,171.68-62.74a375.86,375.86,0,0,0,75.73-59.13c22.5-22.83,42.09-48.74,60.28-75.11,33.92-49.16,61.69-102.39,97.26-150.4,15.65-19.68,32.79-38.08,52.11-54.14a239.51,239.51,0,0,1,38.39-22.71,208,208,0,0,1,36.46-10.29,169.73,169.73,0,0,1,27.15-.16,148.75,148.75,0,0,1,22.4,6.22c19.39,9.11,38.39,20,59.49,24,16.13,3.09,31.84,2.47,46.41-6.12,12.5-7.37,24.41-21.8,27.68-36.27C1462.56,264.26,1461.8,246.82,1453,233Z"/></g><g id="Layer_2" data-name="Layer 2"><ellipse class="cls-4" cx="830" cy="282.5" rx="158" ry="151.5"/><circle class="cls-5" cx="962" cy="343" r="58"/><path class="cls-5" d="M965.62,674.86l52.16-34.39,61.89-4.82L1030,671.88Z"/><path class="cls-2" d="M965.65,674.75l23.77,72.58,65.2-2.06L1030,671.88Z"/><path class="cls-4" d="M1079.87,635.65,1030,671.88l24.63,73.39,50.81-39.22Z"/><rect class="cls-6" x="1375.33" y="198.02" width="10.75" height="736" transform="translate(-111.52 567.22) rotate(-22.34)"/><rect class="cls-5" x="1396.08" y="189.84" width="10.75" height="736" transform="translate(-106.85 574.49) rotate(-22.34)"/><rect class="cls-5" x="1416.83" y="181.5" width="10.75" height="736" transform="translate(-102.12 581.75) rotate(-22.34)"/><rect class="cls-5" x="1437.74" y="172.36" width="10.75" height="736" transform="translate(-97.08 589.01) rotate(-22.34)"/><rect class="cls-2" x="216" y="288" width="449" height="457"/><path class="cls-4" d="M1330.78,834.84,1262.61,746l-100.92-40.7,63,90.91Z"/><path class="cls-2" d="M1330.79,834.61l-80.16,118.3-108-37.46,82-119.29Z"/><path class="cls-6" d="M1161.35,705.15l63.34,91-82,119.29L1079.4,818.6Z"/><polygon class="cls-6" points="315.89 656.54 308.34 652.88 325.07 608.95 332.62 612.61 315.89 656.54"/><polygon class="cls-6" points="298.94 627.23 302.1 618.92 342.02 638.26 338.86 646.57 298.94 627.23"/><polygon class="cls-6" points="376.84 686.07 369.29 682.41 386.02 638.48 393.58 642.14 376.84 686.07"/><polygon class="cls-6" points="359.89 656.76 363.06 648.45 402.98 667.79 399.81 676.1 359.89 656.76"/><polygon class="cls-6" points="437.8 715.6 430.25 711.94 446.98 668.01 454.53 671.67 437.8 715.6"/><polygon class="cls-6" points="420.85 686.29 424.01 677.98 463.93 697.32 460.77 705.63 420.85 686.29"/><polygon class="cls-6" points="498.75 745.13 491.2 741.47 507.94 697.54 515.49 701.2 498.75 745.13"/><polygon class="cls-6" points="481.8 715.82 484.97 707.51 524.89 726.85 521.72 735.16 481.8 715.82"/><polygon class="cls-6" points="561.87 775.7 554.32 772.04 571.05 728.11 578.6 731.77 561.87 775.7"/><polygon class="cls-6" points="544.92 746.39 548.08 738.08 588 757.42 584.83 765.73 544.92 746.39"/><polygon class="cls-6" points="287.58 730.06 280.03 726.4 296.76 682.48 304.32 686.14 287.58 730.06"/><polygon class="cls-6" points="270.63 700.76 273.8 692.45 313.71 711.78 310.55 720.1 270.63 700.76"/><polygon class="cls-6" points="348.54 759.59 340.99 755.93 357.72 712.01 365.27 715.66 348.54 759.59"/><polygon class="cls-6" points="331.59 730.29 334.75 721.98 374.67 741.31 371.5 749.62 331.59 730.29"/><polygon class="cls-6" points="409.49 789.12 401.94 785.46 418.68 741.53 426.23 745.19 409.49 789.12"/><polygon class="cls-6" points="392.54 759.82 395.71 751.5 435.63 770.84 432.46 779.15 392.54 759.82"/><polygon class="cls-6" points="470.45 818.65 462.9 814.99 479.63 771.06 487.18 774.72 470.45 818.65"/><polygon class="cls-6" points="453.5 789.34 456.66 781.03 496.58 800.37 493.42 808.68 453.5 789.34"/><polygon class="cls-6" points="533.56 849.22 526.01 845.57 542.74 801.64 550.3 805.3 533.56 849.22"/><polygon class="cls-6" points="516.61 819.92 519.78 811.61 559.7 830.94 556.53 839.25 516.61 819.92"/><polygon class="cls-6" points="261.26 799.32 253.7 795.66 270.44 751.73 277.99 755.39 261.26 799.32"/><polygon class="cls-6" points="244.31 770.01 247.47 761.7 287.39 781.04 284.22 789.35 244.31 770.01"/><polygon class="cls-6" points="322.21 828.85 314.66 825.19 331.39 781.26 338.94 784.92 322.21 828.85"/><polygon class="cls-6" points="305.26 799.54 308.43 791.23 348.34 810.57 345.18 818.88 305.26 799.54"/><polygon class="cls-6" points="383.17 858.37 375.62 854.72 392.35 810.79 399.9 814.45 383.17 858.37"/><polygon class="cls-6" points="366.22 829.07 369.38 820.76 409.3 840.09 406.13 848.4 366.22 829.07"/><polygon class="cls-6" points="444.12 887.9 436.57 884.24 453.3 840.32 460.86 843.98 444.12 887.9"/><polygon class="cls-6" points="427.17 858.6 430.34 850.28 470.25 869.62 467.09 877.93 427.17 858.6"/><polygon class="cls-6" points="507.24 918.48 499.68 914.82 516.42 870.89 523.97 874.55 507.24 918.48"/><polygon class="cls-6" points="490.29 889.17 493.45 880.86 533.37 900.2 530.2 908.51 490.29 889.17"/><polygon class="cls-6" points="232.95 872.84 225.4 869.18 242.13 825.25 249.68 828.91 232.95 872.84"/><polygon class="cls-6" points="216 843.53 219.17 835.22 259.08 854.56 255.92 862.87 216 843.53"/><polygon class="cls-6" points="293.91 902.37 286.36 898.71 303.09 854.78 310.64 858.44 293.91 902.37"/><polygon class="cls-6" points="276.95 873.06 280.12 864.75 320.04 884.09 316.87 892.4 276.95 873.06"/><polygon class="cls-6" points="354.86 931.9 347.31 928.24 364.04 884.31 371.6 887.97 354.86 931.9"/><polygon class="cls-6" points="337.91 902.59 341.08 894.28 380.99 913.62 377.83 921.93 337.91 902.59"/><polygon class="cls-6" points="415.82 961.43 408.27 957.77 425 913.84 432.55 917.5 415.82 961.43"/><polygon class="cls-6" points="398.87 932.12 402.03 923.81 441.95 943.15 438.78 951.46 398.87 932.12"/><polygon class="cls-6" points="478.93 992 471.38 988.34 488.11 944.41 495.66 948.07 478.93 992"/><polygon class="cls-6" points="461.98 962.69 465.14 954.38 505.06 973.72 501.9 982.03 461.98 962.69"/><rect class="cls-7" x="1461" y="694" width="358" height="288"/><rect class="cls-8" x="141" width="16" height="1068"/></g></svg>